# Blender v3.5.1 OBJ File: ''
# www.blender.org
mtllib hall.mtl
o Cube
v 4.000000 0.500000 -4.000000
v 4.000000 -0.500000 -4.000000
v 4.000000 0.500000 4.000000
v 4.000000 -0.500000 4.000000
v -4.000000 0.500000 -4.000000
v -4.000000 -0.500000 -4.000000
v -4.000000 0.500000 4.000000
v -4.000000 -0.500000 4.000000
v 4.000000 0.500000 -3.000000
v -4.000000 0.500000 -3.000000
v -4.000000 6.500000 -3.000000
v -4.000000 6.500000 -4.000000
v 4.000000 6.500000 -4.000000
v 4.000000 6.500000 -3.000000
v 4.000000 0.500000 3.000000
v -4.000000 6.500000 4.000000
v -4.000000 0.500000 3.000000
v 4.000000 6.500000 4.000000
v 4.000000 6.500000 3.000000
v -4.000000 6.500000 3.000000
v -4.000000 7.500000 4.000000
v -4.000000 7.500000 3.000000
v 4.000000 7.500000 4.000000
v -4.000000 7.500000 -3.000000
v -4.000000 7.500000 -4.000000
v 4.000000 7.500000 -4.000000
v 4.000000 7.500000 -3.000000
v 4.000000 7.500000 3.000000
v -4.000000 7.500000 3.000000
v -4.000000 7.500000 -3.000000
v 4.000000 7.500000 -3.000000
v 4.000000 7.500000 3.000000
vt 0.625000 0.250000
vt 0.625000 0.125000
vt 0.625000 0.125000
vt 0.625000 0.250000
vt 0.375000 0.750000
vt 0.625000 0.750000
vt 0.625000 1.000000
vt 0.375000 1.000000
vt 0.375000 0.000000
vt 0.625000 0.000000
vt 0.625000 0.062500
vt 0.375000 0.250000
vt 0.125000 0.500000
vt 0.375000 0.500000
vt 0.125000 0.750000
vt 0.625000 0.500000
vt 0.625000 0.625000
vt 0.625000 0.687500
vt 0.625000 0.750000
vt 0.625000 1.000000
vt 0.875000 0.625000
vt 0.625000 0.625000
vt 0.625000 0.625000
vt 0.875000 0.625000
vt 0.625000 0.500000
vt 0.875000 0.625000
vt 0.875000 0.687500
vt 0.625000 0.687500
vt 0.625000 0.687500
vt 0.625000 0.750000
vt 0.875000 0.687500
vt 0.625000 0.000000
vt 0.625000 0.062500
vt 0.625000 0.500000
vt 0.875000 0.500000
vt 0.875000 0.687500
vt 0.875000 0.750000
vt 0.625000 1.000000
vt 0.625000 0.000000
vt 0.625000 0.062500
vt 0.625000 0.250000
vt 0.625000 0.125000
vt 0.000000 0.000000
vt 0.000000 0.000000
vt 0.000000 0.000000
vt 0.000000 0.000000
vt 0.000000 0.000000
vt 0.000000 0.000000
vt 0.000000 0.000000
vt 0.000000 0.000000
vt 0.875000 0.687500
vt 0.625000 0.687500
vt 0.000000 0.000000
vt 0.000000 0.000000
vt 0.000000 0.000000
vt 0.000000 0.000000
vt 0.625000 0.625000
vt 0.875000 0.625000
vn -1.0000 0.0000 0.0000
vn 0.0000 0.0000 1.0000
vn 0.0000 -1.0000 0.0000
vn 1.0000 0.0000 0.0000
vn 0.0000 0.0000 -1.0000
vn 0.0000 1.0000 0.0000
usemtl Material
s off
f 5/1/1 10/2/1 11/3/1 12/4/1
f 4/5/2 3/6/2 7/7/2 8/8/2
f 8/9/1 7/10/1 17/11/1 10/2/1 5/1/1 6/12/1
f 6/13/3 2/14/3 4/5/3 8/15/3
f 2/14/4 1/16/4 9/17/4 15/18/4 3/6/4 4/5/4
f 6/12/5 5/1/5 1/16/5 2/14/5
f 7/7/2 3/6/2 18/19/2 16/20/2
f 11/21/2 14/22/2 27/23/2 24/24/2
f 1/16/5 5/1/5 12/4/5 13/25/5
f 9/17/4 1/16/4 13/25/4 14/22/4
f 10/26/2 9/17/2 14/22/2 11/21/2
f 9/17/6 10/26/6 17/27/6 15/18/6
f 18/19/4 19/28/4 28/29/4 23/30/4
f 3/6/4 15/18/4 19/28/4 18/19/4
f 15/18/5 17/27/5 20/31/5 19/28/5
f 17/11/1 7/10/1 16/32/1 20/33/1
f 11/21/3 14/22/3 19/28/3 20/31/3
f 26/34/6 25/35/6 24/24/6 27/23/6
f 28/29/6 22/36/6 21/37/6 23/30/6
f 14/22/4 13/25/4 26/34/4 27/23/4
f 16/20/2 18/19/2 23/30/2 21/38/2
f 20/33/1 16/32/1 21/39/1 22/40/1
f 19/28/5 20/31/5 22/36/5 28/29/5
f 13/25/5 12/4/5 25/41/5 26/34/5
f 12/4/1 11/3/1 24/42/1 25/41/1
f 14/43/4 27/44/4 28/45/4 19/46/4
f 24/47/1 11/48/1 20/49/1 22/50/1
f 28/29/2 22/36/2 29/51/2 32/52/2
f 29/53/3 30/54/3 31/55/3 32/56/3
f 22/50/2 24/47/2 30/54/2 29/53/2
f 24/24/2 27/23/2 31/57/2 30/58/2
f 27/44/2 28/45/2 32/56/2 31/55/2
